<?xml version="1.0" encoding="utf-8"?>
<!-- Generator: Adobe Illustrator 22.0.1, SVG Export Plug-In . SVG Version: 6.00 Build 0)  -->
<svg version="1.1" id="Layer_1" xmlns="http://www.w3.org/2000/svg" xmlns:xlink="http://www.w3.org/1999/xlink" x="0px" y="0px"
	 viewBox="0 0 19.4 18.5" style="enable-background:new 0 0 19.4 18.5;" xml:space="preserve">
<g>
	<path d="M10.7,18.4c-0.6,0-1.3,0-1.9,0c0-0.1,0-0.1,0-0.2c0-2.9,0-5.9,0-8.8c0-0.3-0.1-0.5-0.4-0.6C8,8.7,7.7,8.4,7.4,8
		C6.5,6.9,6.7,5.4,7.8,4.5c0.2-0.2,0.4-0.3,0.6-0.4c0.3-0.2,0.4-0.4,0.4-0.7c0-1,0-2.1,0-3.1c0-0.1,0-0.2,0-0.3c0.6,0,1.3,0,1.9,0
		c0,0.1,0,0.1,0,0.2c0,1.1,0,2.1,0,3.2c0,0.3,0.1,0.5,0.4,0.7c0.6,0.4,1.1,0.9,1.4,1.6c0.3,1,0.1,1.8-0.6,2.6
		c-0.2,0.3-0.5,0.5-0.8,0.6c-0.3,0.2-0.4,0.4-0.4,0.8c0,1.7,0,3.4,0,5.1c0,1.2,0,2.4,0,3.6C10.7,18.4,10.7,18.4,10.7,18.4z M9.7,5.5
		c-0.5,0-1,0.4-1,0.9c0,0.5,0.5,0.9,1,0.9c0.5,0,1-0.4,1-0.9C10.7,5.9,10.2,5.5,9.7,5.5z"/>
	<path d="M17.5,18.4c-0.6,0-1.3,0-1.9,0c0,0,0-0.1,0-0.1c0-0.8,0-1.5,0-2.3c0-0.3-0.1-0.5-0.4-0.7c-0.3-0.2-0.5-0.3-0.7-0.5
		c-1.2-1.1-1.1-2.8,0.1-3.9c0.2-0.2,0.4-0.3,0.6-0.4c0.3-0.2,0.4-0.4,0.4-0.7c0-3.2,0-6.4,0-9.6c0-0.1,0-0.1,0-0.2
		c0.6,0,1.3,0,1.9,0c0,0.1,0,0.1,0,0.2c0,3.2,0,6.4,0,9.6c0,0.3,0.1,0.6,0.4,0.7c0.4,0.2,0.7,0.5,1,0.9c0.8,1,0.7,2.4-0.2,3.3
		c-0.2,0.3-0.5,0.5-0.8,0.7c-0.2,0.2-0.4,0.3-0.4,0.6c0,0.8,0,1.5,0,2.3C17.5,18.3,17.5,18.4,17.5,18.4z M16.5,13.9
		c0.5,0,1-0.4,1-0.9c0-0.5-0.4-0.9-1-0.9c-0.5,0-1,0.4-1,0.9C15.5,13.4,16,13.9,16.5,13.9z"/>
	<path d="M3.9,18.4c-0.6,0-1.2,0-1.9,0c0-0.1,0-0.3,0-0.4c0-0.7,0-1.5,0-2.2C2,15,1.7,14.5,1.1,14c-0.6-0.4-1-1-1.1-1.7
		c-0.1-0.8,0.2-1.6,0.7-2.1C1,10,1.3,9.8,1.6,9.6C1.8,9.4,2,9.2,2,8.9C2,6,2,3.1,2,0.2C2,0.1,2,0.1,2,0c0.6,0,1.3,0,1.9,0
		c0,0.1,0,0.1,0,0.2c0,2.9,0,5.8,0,8.7c0,0.3,0.1,0.6,0.4,0.7c0.4,0.2,0.8,0.5,1,0.9c0.7,1,0.7,2.2-0.2,3.2
		c-0.3,0.3-0.5,0.5-0.9,0.7c-0.3,0.2-0.4,0.4-0.4,0.8c0,1,0,2.1,0,3.1C3.9,18.3,3.9,18.4,3.9,18.4z M2.9,12.9c0.5,0,1-0.4,1-0.9
		c0-0.5-0.4-0.9-1-0.9c-0.5,0-1,0.5-1,1C1.9,12.5,2.4,12.9,2.9,12.9z"/>
</g>
</svg>
